<svg width="108" height="40" viewBox="0 0 108 40" fill="none" xmlns="http://www.w3.org/2000/svg">
<path d="M16.2149 11V27C16.2149 28.1046 15.3194 29 14.2149 29H3.90333C2.8457 29 1.95366 28.1735 2.06011 27.1212C2.57691 22.0127 6.57998 15.5 20 15.5" stroke="#3854B5" stroke-width="4" stroke-linecap="round" stroke-linejoin="round"/>
<path d="M30.072 28.24C29.048 28.24 28.144 27.992 27.36 27.496C26.592 27 25.992 26.296 25.56 25.384C25.128 24.456 24.912 23.368 24.912 22.12C24.912 20.856 25.128 19.776 25.56 18.88C25.992 17.968 26.592 17.264 27.36 16.768C28.144 16.272 29.048 16.024 30.072 16.024C31.048 16.024 31.896 16.264 32.616 16.744C33.352 17.224 33.848 17.856 34.104 18.64H33.84V12.4C33.84 11.904 33.968 11.528 34.224 11.272C34.48 11.016 34.848 10.888 35.328 10.888C35.808 10.888 36.176 11.016 36.432 11.272C36.704 11.528 36.84 11.904 36.84 12.4V26.656C36.84 27.152 36.712 27.536 36.456 27.808C36.2 28.064 35.832 28.192 35.352 28.192C34.872 28.192 34.504 28.064 34.248 27.808C33.992 27.536 33.864 27.152 33.864 26.656V24.784L34.128 25.504C33.888 26.336 33.4 27 32.664 27.496C31.928 27.992 31.064 28.24 30.072 28.24ZM30.912 25.96C31.504 25.96 32.024 25.816 32.472 25.528C32.92 25.24 33.264 24.816 33.504 24.256C33.76 23.68 33.888 22.968 33.888 22.12C33.888 20.84 33.616 19.888 33.072 19.264C32.528 18.624 31.808 18.304 30.912 18.304C30.32 18.304 29.8 18.448 29.352 18.736C28.904 19.008 28.552 19.432 28.296 20.008C28.056 20.568 27.936 21.272 27.936 22.12C27.936 23.384 28.208 24.344 28.752 25C29.296 25.64 30.016 25.96 30.912 25.96ZM41.4386 28.192C40.9586 28.192 40.5906 28.064 40.3346 27.808C40.0786 27.536 39.9506 27.152 39.9506 26.656V12.4C39.9506 11.904 40.0786 11.528 40.3346 11.272C40.5906 11.016 40.9586 10.888 41.4386 10.888C41.9186 10.888 42.2866 11.016 42.5426 11.272C42.8146 11.528 42.9506 11.904 42.9506 12.4V18.616H42.6146C42.9666 17.768 43.5106 17.128 44.2466 16.696C44.9986 16.248 45.8466 16.024 46.7906 16.024C47.7346 16.024 48.5106 16.2 49.1186 16.552C49.7266 16.904 50.1826 17.44 50.4866 18.16C50.7906 18.864 50.9426 19.76 50.9426 20.848V26.656C50.9426 27.152 50.8146 27.536 50.5586 27.808C50.3026 28.064 49.9346 28.192 49.4546 28.192C48.9746 28.192 48.5986 28.064 48.3266 27.808C48.0706 27.536 47.9426 27.152 47.9426 26.656V20.992C47.9426 20.08 47.7666 19.416 47.4146 19C47.0786 18.584 46.5506 18.376 45.8306 18.376C44.9506 18.376 44.2466 18.656 43.7186 19.216C43.2066 19.76 42.9506 20.488 42.9506 21.4V26.656C42.9506 27.68 42.4466 28.192 41.4386 28.192ZM57.8537 28.24C57.0057 28.24 56.2457 28.08 55.5737 27.76C54.9177 27.424 54.3977 26.976 54.0137 26.416C53.6457 25.856 53.4617 25.224 53.4617 24.52C53.4617 23.656 53.6857 22.976 54.1337 22.48C54.5817 21.968 55.3097 21.6 56.3177 21.376C57.3257 21.152 58.6777 21.04 60.3737 21.04H61.5737V22.768H60.3977C59.4057 22.768 58.6137 22.816 58.0217 22.912C57.4297 23.008 57.0057 23.176 56.7497 23.416C56.5097 23.64 56.3897 23.96 56.3897 24.376C56.3897 24.904 56.5737 25.336 56.9417 25.672C57.3097 26.008 57.8217 26.176 58.4777 26.176C59.0057 26.176 59.4697 26.056 59.8697 25.816C60.2857 25.56 60.6137 25.216 60.8537 24.784C61.0937 24.352 61.2137 23.856 61.2137 23.296V20.536C61.2137 19.736 61.0377 19.16 60.6857 18.808C60.3337 18.456 59.7417 18.28 58.9097 18.28C58.4457 18.28 57.9417 18.336 57.3977 18.448C56.8697 18.56 56.3097 18.752 55.7177 19.024C55.4137 19.168 55.1417 19.208 54.9017 19.144C54.6777 19.08 54.5017 18.952 54.3737 18.76C54.2457 18.552 54.1817 18.328 54.1817 18.088C54.1817 17.848 54.2457 17.616 54.3737 17.392C54.5017 17.152 54.7177 16.976 55.0217 16.864C55.7577 16.56 56.4617 16.344 57.1337 16.216C57.8217 16.088 58.4457 16.024 59.0057 16.024C60.1577 16.024 61.1017 16.2 61.8377 16.552C62.5897 16.904 63.1497 17.44 63.5177 18.16C63.8857 18.864 64.0697 19.776 64.0697 20.896V26.656C64.0697 27.152 63.9497 27.536 63.7097 27.808C63.4697 28.064 63.1257 28.192 62.6777 28.192C62.2297 28.192 61.8777 28.064 61.6217 27.808C61.3817 27.536 61.2617 27.152 61.2617 26.656V25.504H61.4537C61.3417 26.064 61.1177 26.552 60.7817 26.968C60.4617 27.368 60.0537 27.68 59.5577 27.904C59.0617 28.128 58.4937 28.24 57.8537 28.24ZM71.1227 28.24C69.7947 28.24 68.7947 27.864 68.1227 27.112C67.4507 26.344 67.1147 25.224 67.1147 23.752V12.4C67.1147 11.904 67.2427 11.528 67.4987 11.272C67.7547 11.016 68.1227 10.888 68.6027 10.888C69.0827 10.888 69.4507 11.016 69.7067 11.272C69.9787 11.528 70.1147 11.904 70.1147 12.4V23.608C70.1147 24.344 70.2667 24.888 70.5707 25.24C70.8907 25.592 71.3387 25.768 71.9147 25.768C72.0427 25.768 72.1627 25.768 72.2747 25.768C72.3867 25.752 72.4987 25.736 72.6107 25.72C72.8347 25.688 72.9867 25.752 73.0667 25.912C73.1467 26.056 73.1867 26.36 73.1867 26.824C73.1867 27.224 73.1067 27.536 72.9467 27.76C72.7867 27.984 72.5227 28.12 72.1547 28.168C71.9947 28.184 71.8267 28.2 71.6507 28.216C71.4747 28.232 71.2987 28.24 71.1227 28.24ZM80.4456 28.24C79.1176 28.24 77.9736 27.992 77.0136 27.496C76.0536 27 75.3096 26.296 74.7816 25.384C74.2696 24.472 74.0136 23.392 74.0136 22.144C74.0136 20.928 74.2616 19.864 74.7576 18.952C75.2696 18.04 75.9656 17.328 76.8456 16.816C77.7416 16.288 78.7576 16.024 79.8936 16.024C80.7256 16.024 81.4696 16.16 82.1256 16.432C82.7976 16.704 83.3656 17.096 83.8296 17.608C84.3096 18.12 84.6696 18.744 84.9096 19.48C85.1656 20.2 85.2936 21.016 85.2936 21.928C85.2936 22.216 85.1896 22.44 84.9816 22.6C84.7896 22.744 84.5096 22.816 84.1416 22.816H76.4376V21.088H83.1816L82.7976 21.448C82.7976 20.712 82.6856 20.096 82.4616 19.6C82.2536 19.104 81.9416 18.728 81.5256 18.472C81.1256 18.2 80.6216 18.064 80.0136 18.064C79.3416 18.064 78.7656 18.224 78.2856 18.544C77.8216 18.848 77.4616 19.288 77.2056 19.864C76.9656 20.424 76.8456 21.096 76.8456 21.88V22.048C76.8456 23.36 77.1496 24.344 77.7576 25C78.3816 25.64 79.2936 25.96 80.4936 25.96C80.9096 25.96 81.3736 25.912 81.8856 25.816C82.4136 25.704 82.9096 25.52 83.3736 25.264C83.7096 25.072 84.0056 24.992 84.2616 25.024C84.5176 25.04 84.7176 25.128 84.8616 25.288C85.0216 25.448 85.1176 25.648 85.1496 25.888C85.1816 26.112 85.1336 26.344 85.0056 26.584C84.8936 26.824 84.6936 27.032 84.4056 27.208C83.8456 27.56 83.1976 27.824 82.4616 28C81.7416 28.16 81.0696 28.24 80.4456 28.24ZM89.2054 28.192C88.7254 28.192 88.3574 28.064 88.1014 27.808C87.8454 27.536 87.7174 27.152 87.7174 26.656V17.584C87.7174 17.088 87.8454 16.712 88.1014 16.456C88.3574 16.2 88.7174 16.072 89.1814 16.072C89.6454 16.072 90.0054 16.2 90.2614 16.456C90.5174 16.712 90.6454 17.088 90.6454 17.584V19.336L90.3814 18.616C90.7014 17.816 91.1974 17.184 91.8694 16.72C92.5414 16.256 93.3414 16.024 94.2694 16.024C95.2134 16.024 95.9894 16.248 96.5974 16.696C97.2054 17.144 97.6294 17.832 97.8694 18.76H97.5334C97.8534 17.912 98.3814 17.248 99.1174 16.768C99.8534 16.272 100.701 16.024 101.661 16.024C102.557 16.024 103.293 16.2 103.869 16.552C104.461 16.904 104.901 17.44 105.189 18.16C105.477 18.864 105.621 19.76 105.621 20.848V26.656C105.621 27.152 105.485 27.536 105.213 27.808C104.957 28.064 104.589 28.192 104.109 28.192C103.629 28.192 103.261 28.064 103.005 27.808C102.749 27.536 102.621 27.152 102.621 26.656V20.968C102.621 20.072 102.469 19.416 102.165 19C101.877 18.584 101.381 18.376 100.677 18.376C99.8934 18.376 99.2774 18.656 98.8294 19.216C98.3814 19.76 98.1574 20.52 98.1574 21.496V26.656C98.1574 27.152 98.0294 27.536 97.7734 27.808C97.5174 28.064 97.1494 28.192 96.6694 28.192C96.1894 28.192 95.8134 28.064 95.5414 27.808C95.2854 27.536 95.1574 27.152 95.1574 26.656V20.968C95.1574 20.072 95.0054 19.416 94.7014 19C94.4134 18.584 93.9254 18.376 93.2374 18.376C92.4534 18.376 91.8374 18.656 91.3894 19.216C90.9414 19.76 90.7174 20.52 90.7174 21.496V26.656C90.7174 27.68 90.2134 28.192 89.2054 28.192Z" fill="#333333"/>
</svg>
